<svg width="120" height="120" viewBox="0 0 120 120" fill="none" xmlns="http://www.w3.org/2000/svg">
<g clip-path="url(#clip0_689_79)">
<circle cx="60" cy="60" r="60" fill="#F6F7FF"/>
<path d="M56.0704 0.0322924C55.8123 0.0557494 54.9912 0.137849 54.2522 0.196491C37.2082 1.73292 21.2434 10.9281 11.132 25.0609C5.50147 32.919 1.90029 41.8326 0.539589 51.274C0.058651 54.5697 0 55.5432 0 60.0117C0 64.4803 0.058651 65.4538 0.539589 68.7495C3.80059 91.2799 19.8358 110.21 41.5836 117.223C45.478 118.478 49.5836 119.334 54.2522 119.85C56.0704 120.05 63.9296 120.05 65.7478 119.85C73.8065 118.959 80.6334 116.965 87.3666 113.529C88.3988 113.001 88.5982 112.86 88.4575 112.743C88.3636 112.673 83.9648 106.773 78.6862 99.6423L69.0909 86.6823L57.0674 68.8902C50.4516 59.1087 45.0088 51.1098 44.9619 51.1098C44.915 51.0981 44.868 59.0031 44.8446 68.6556C44.8094 85.5564 44.7977 86.2366 44.5865 86.6354C44.2815 87.2101 44.0469 87.4447 43.5543 87.7027C43.1789 87.8903 42.8504 87.9255 41.0792 87.9255H39.0499L38.5103 87.5854C38.1584 87.3626 37.9003 87.0694 37.7243 86.7292L37.478 86.2014L37.5015 62.6858L37.5367 39.1585L37.9003 38.7011C38.088 38.4548 38.4868 38.1381 38.7683 37.9857C39.2493 37.7511 39.4369 37.7276 41.4663 37.7276C43.8592 37.7276 44.2581 37.8215 44.8798 38.5017C45.0557 38.6894 51.566 48.4944 59.3548 60.305C67.1437 72.1155 77.7947 88.2422 83.0264 96.1589L92.5279 110.55L93.0088 110.233C97.2669 107.465 101.771 103.524 105.337 99.4194C112.927 90.7052 117.818 80.0792 119.46 68.7495C119.941 65.4538 120 64.4803 120 60.0117C120 55.5432 119.941 54.5697 119.46 51.274C116.199 28.7436 100.164 9.81385 78.4164 2.80021C74.5806 1.557 70.4985 0.700816 65.9238 0.184763C64.7977 0.0674779 57.044 -0.0615354 56.0704 0.0322924ZM80.6334 36.3202C81.1965 36.6017 81.654 37.1412 81.8182 37.7042C81.912 38.0091 81.9355 44.5302 81.912 59.2259L81.8768 80.3137L78.1584 74.6137L74.4282 68.9137V53.5845C74.4282 43.674 74.4751 38.1029 74.5455 37.8332C74.7331 37.1764 75.1437 36.6603 75.7067 36.3554C76.1877 36.1091 76.3636 36.0856 78.2053 36.0856C79.9413 36.0856 80.2463 36.1091 80.6334 36.3202Z" fill="black"/>
</g>
<defs>
<clipPath id="clip0_689_79">
<rect width="120" height="120" fill="white"/>
</clipPath>
</defs>
</svg>
